Coordinates
version=1
nRows=16
nColumns=22
inDegrees=yes

Units are S.I. units (second, meters, Newtons, ...)
If the header above contains a line with 'inDegrees', this indicates whether rotational values are in degrees (yes) or radians (no).

endheader
time	pelvis_tilt	pelvis_list	pelvis_rotation	pelvis_tx	pelvis_ty	pelvis_tz	hip_flexion_r	hip_adduction_r	hip_rotation_r	knee_angle_r	ankle_angle_r	subtalar_angle_r	hip_flexion_l	hip_adduction_l	hip_rotation_l	knee_angle_l	ankle_angle_l	subtalar_angle_l	lumbar_extension	lumbar_bending	lumbar_rotation
      2.43000000	      0.94878799	     -3.59998343	     -8.03879954	      0.08182336	      0.89791238	      0.04879684	     -0.71905823	      5.90714729	     -2.42027834	    -34.33295532	     23.88998304	     -0.67627503	     29.99441161	     -7.97464063	    -21.10224661	    -22.32467795	      4.32192575	     -7.59381141	    -13.72284168	     -0.66688689	      9.30939130
      2.44000000	      1.17904233	     -4.00888831	     -7.93395863	      0.07256540	      0.89861024	      0.04997476	     -0.79212363	      6.51522655	     -2.65464003	    -33.64206757	     24.15179180	     -1.24443901	     29.92368070	     -8.49689648	    -21.16527651	    -22.45117932	      4.56837035	     -6.96225556	    -14.21692606	     -0.19114659	      8.52855324
      2.45000000	      1.40463343	     -4.40281045	     -7.76086453	      0.06356109	      0.89935122	      0.05107631	     -0.89240651	      7.10578335	     -2.93567174	    -32.90309175	     24.34166367	     -1.68777405	     29.94271645	     -9.02841313	    -21.14604121	    -22.99237609	      4.78684065	     -6.57257946	    -14.66179716	      0.27131747	      7.69695316
      2.46000000	      1.62687687	     -4.78488196	     -7.54508291	      0.05479086	      0.90016403	      0.05214776	     -0.99824188	      7.67544227	     -3.28033671	    -32.15436049	     24.45690205	     -2.14990285	     30.04299990	     -9.58828289	    -21.05002445	    -23.95838055	      4.95918334	     -6.29030403	    -15.06309901	      0.71337940	      6.87285673
      2.47000000	      1.87199323	     -5.15225658	     -7.31603230	      0.04620936	      0.90111797	      0.05322352	     -1.11980534	      8.23035430	     -3.60012768	    -31.42818958	     24.52215254	     -2.46792323	     30.17648955	    -10.15981636	    -20.79160092	    -25.31493350	      5.14149782	     -6.19123992	    -15.46295213	      1.12409441	      6.06967015
      2.48000000	      2.05190449	     -5.49422239	     -7.08445776	      0.03785132	      0.90210777	      0.05432839	     -1.16016883	      8.76613727	     -3.93344772	    -30.72338608	     24.42732629	     -2.99136403	     30.43112797	    -10.73437407	    -20.35148241	    -27.03544763	      5.31068703	     -6.15557170	    -15.74448833	      1.49851646	      5.32289359
      2.49000000	      2.29981604	     -5.80752971	     -6.86939664	      0.02968796	      0.90339245	      0.05543839	     -1.26028522	      9.26007747	     -4.20979633	    -30.04806860	     24.24210049	     -3.21761764	     30.60619250	    -11.26069074	    -19.68187377	    -28.99902407	      5.51204059	     -6.21856263	    -16.08006288	      1.81562807	      4.63374638
      2.50000000	      2.44018350	     -6.07866690	     -6.69065955	      0.02166967	      0.90465881	      0.05656443	     -1.18681161	      9.71250285	     -4.47366397	    -29.47438531	     23.91335941	     -3.59309820	     30.91210564	    -11.73495367	    -18.77874351	    -31.20029400	      5.70651140	     -6.34906063	    -16.25854082	      2.08439374	      4.02661093
      2.51000000	      2.63790935	     -6.30511826	     -6.54745481	      0.01379609	      0.90622475	      0.05766805	     -1.14936673	     10.10288565	     -4.66470227	    -28.94816733	     23.54343198	     -3.80200952	     31.10979072	    -12.10023540	    -17.64459946	    -33.51010109	      5.89493200	     -6.43949264	    -16.48454777	      2.27933446	      3.50481094
      2.52000000	      2.72979043	     -6.47218431	     -6.45988901	      0.00601487	      0.90777633	      0.05874338	     -0.93392696	     10.41944838	     -4.84518994	    -28.53118985	     23.08247630	     -4.05124142	     31.40018753	    -12.36921915	    -16.36184079	    -35.94203741	      6.06994107	     -6.50503065	    -16.56619265	      2.41149424	      3.06959661
      2.53000000	      2.83935528	     -6.58435796	     -6.40739968	     -0.00164564	      0.90954459	      0.05974821	     -0.71829939	     10.66156239	     -4.97189498	    -28.14850293	     22.56266578	     -4.20578547	     31.60443482	    -12.50554003	    -14.94869682	    -38.40026603	      6.24463621	     -6.47976901	    -16.64892418	      2.47342101	      2.69718111
      2.54000000	      2.92836936	     -6.64301614	     -6.39163638	     -0.00918803	      0.91142887	      0.06069032	     -0.46587227	     10.83321902	     -5.06636031	    -27.79423488	     21.99667109	     -4.31350752	     31.76492457	    -12.53016995	    -13.48539751	    -40.87814866	      6.41802372	     -6.36141705	    -16.68531996	      2.47339190	      2.37681988
      2.55000000	      3.07314462	     -6.64066546	     -6.39571961	     -0.01656505	      0.91356259	      0.06153127	     -0.29698424	     10.91339506	     -5.16071402	    -27.40219626	     21.34050564	     -4.38256965	     31.76186200	    -12.42691655	    -12.03607390	    -43.31304231	      6.65350922	     -6.23895642	    -16.76019847	      2.39747690	      2.10871481
      2.56000000	      3.07188219	     -6.63282727	     -6.44649787	     -0.02392065	      0.91548146	      0.06237779	      0.04703344	     11.00643764	     -5.19543160	    -27.05182730	     20.75562771	     -4.45596635	     31.88375812	    -12.32056599	    -10.62822452	    -45.80054600	      6.79521098	     -5.88537091	    -16.65571957	      2.33233862	      1.86578504
      2.57000000	      3.16883238	     -6.58293087	     -6.50136690	     -0.03108259	      0.91765891	      0.06314886	      0.22359180	     11.03180414	     -5.24266064	    -26.60601097	     20.06444571	     -4.52229814	     31.77262453	    -12.14438405	     -9.34928760	    -48.20715489	      7.02963874	     -5.64155946	    -16.63827345	      2.21022362	      1.62725270
      2.58000000	      3.18486277	     -6.52432630	     -6.58038784	     -0.03813951	      0.91971843	      0.06392349	      0.43307961	     11.06515489	     -5.24193519	    -26.07650535	     19.41716622	     -4.59458278	     31.66506616	    -11.96740149	     -8.15468294	    -50.58075679	      7.21274394	     -5.27336740	    -16.50573972	      2.08518092	      1.46314419
